<svg width="1200" height="37" viewBox="0 0 1200 37" fill="none" xmlns="http://www.w3.org/2000/svg">
<path d="M1.06 24.01C1.09 24.03 1.11 24.0601 1.13 24.0801L1.77 24.72V24.71L12.23 35.1201C12.92 35.8001 13.98 35.86 14.76 35.21L19.75 30.6201V30.6301L27.25 23.98C27.95 23.38 28.98 23.38 29.68 23.98L36.36 29.73V29.72L42.39 35.4299C43.1 36.0399 44.15 36.0299 44.84 35.4099L55.9 25.54V25.55L57.66 23.98C58.37 23.35 59.43 23.35 60.14 23.98L72.94 35.4299C73.64 36.0199 74.66 36.0299 75.36 35.4199L82.99 28.1501L87.47 24.04C88.17 23.43 89.2 23.43 89.9 24.04L96.93 30.3501V30.3401L102.81 35.5801C103.52 36.1901 104.57 36.1801 105.26 35.5601L109.65 31.7L116.95 25.55L118.71 23.98C119.42 23.35 120.48 23.35 121.19 23.98L128.19 29.8201V29.79L134.74 35.55C135.43 36.17 136.49 36.1801 137.19 35.5701L142.7 30.8201V30.8301L149.84 23.99C150.54 23.38 151.57 23.39 152.28 23.99L156.52 27.8401L164.64 35.4099C165.26 35.8899 166.37 36.0099 167.06 35.4199L179.86 23.97C180.57 23.34 181.63 23.34 182.34 23.97L184.1 25.54V25.53L195.16 35.4001C195.85 36.0201 196.91 36.0299 197.61 35.4199L203.66 30.21V30.22L210.41 23.95C211.11 23.35 212.14 23.35 212.84 23.95L220.41 31.05V31.04L225.24 35.2C226.07 35.77 227.08 35.7901 227.76 35.1101L238.22 24.7V24.71L238.86 24.0701C238.88 24.0501 238.91 24.02 238.93 24C239.27 23.66 239.74 23.45 240.25 23.45C240.26 23.45 240.28 23.45 240.29 23.45C240.3 23.45 240.32 23.45 240.33 23.45C240.85 23.45 241.31 23.66 241.65 24C241.68 24.02 241.7 24.0501 241.72 24.0701L242.36 24.71V24.7L252.82 35.1101C253.51 35.7901 254.57 35.85 255.35 35.2L260.34 30.6101V30.6201L267.84 23.97C268.54 23.37 269.57 23.37 270.27 23.97L276.95 29.72V29.71L282.98 35.4199C283.69 36.0299 284.74 36.0201 285.43 35.4001L296.49 25.53V25.54L298.25 23.97C298.96 23.34 300.02 23.34 300.73 23.97L313.53 35.4199C314.23 36.0099 315.25 36.0199 315.95 35.4099L323.58 28.1401L328.06 24.03C328.76 23.42 329.79 23.42 330.49 24.03L337.52 30.3401V30.3301L343.4 35.5701C344.11 36.1801 345.16 36.17 345.85 35.55L350.24 31.6899L357.54 25.54L359.3 23.97C360.01 23.34 361.07 23.34 361.78 23.97L368.77 29.8101V29.78L375.32 35.54C376.01 36.16 377.07 36.1701 377.77 35.5601L383.28 30.8101V30.8201L390.42 23.98C391.12 23.37 392.15 23.38 392.86 23.98L397.1 27.8301L405.22 35.4001C405.84 35.8801 406.94 35.9999 407.64 35.4099L420.44 23.96C421.15 23.33 422.21 23.33 422.92 23.96L424.68 25.53V25.52L435.74 35.3901C436.43 36.0101 437.49 36.0199 438.19 35.4099L444.24 30.2V30.21L450.99 23.9399C451.69 23.3399 452.72 23.3399 453.42 23.9399L460.99 31.04V31.03L465.82 35.1899C466.65 35.7599 467.66 35.7801 468.34 35.1001L478.8 24.6899V24.7L479.44 24.0601C479.46 24.0401 479.49 24.01 479.51 23.99C479.85 23.65 480.32 23.4399 480.83 23.4399C480.84 23.4399 480.86 23.4399 480.87 23.4399C480.88 23.4399 480.9 23.4399 480.91 23.4399C481.43 23.4399 481.89 23.65 482.23 23.99C482.26 24.01 482.28 24.0401 482.3 24.0601L482.94 24.7V24.6899L493.4 35.1001C494.09 35.7801 495.15 35.8399 495.93 35.1899L500.92 30.6001V30.6101L508.42 23.96C509.12 23.36 510.15 23.36 510.85 23.96L517.53 29.71V29.7L523.56 35.4099C524.27 36.0199 525.32 36.0101 526.01 35.3901L537.07 25.52V25.53L538.83 23.96C539.54 23.33 540.6 23.33 541.31 23.96L554.11 35.4099C554.81 35.9999 555.83 36.0101 556.53 35.4001L564.16 28.1301L568.64 24.02C569.34 23.41 570.37 23.41 571.07 24.02L578.1 30.3301V30.3201L583.98 35.5601C584.69 36.1701 585.74 36.16 586.43 35.54L590.82 31.6799L598.12 25.53L599.88 23.96C600.59 23.33 601.65 23.33 602.36 23.96L609.35 29.8V29.77L615.9 35.53C616.59 36.15 617.65 36.16 618.35 35.55L623.86 30.8V30.8101L631 23.97C631.7 23.36 632.73 23.37 633.43 23.97L637.67 27.8201L645.79 35.3901C646.41 35.8701 647.51 35.9901 648.21 35.4001L661.01 23.95C661.72 23.32 662.78 23.32 663.49 23.95L665.25 25.52V25.51L676.31 35.3801C677 36.0001 678.06 36.0101 678.76 35.4001L684.81 30.1899V30.2L691.56 23.9299C692.26 23.3299 693.29 23.3299 693.99 23.9299L701.56 31.03V31.02L706.39 35.1799C707.22 35.7499 708.23 35.7701 708.91 35.0901L719.37 24.6799V24.6899L720.01 24.05C720.03 24.03 720.06 24 720.08 23.98C720.42 23.64 720.89 23.4299 721.4 23.4299C721.41 23.4299 721.43 23.4299 721.44 23.4299C721.45 23.4299 721.47 23.4299 721.48 23.4299C722 23.4299 722.46 23.64 722.8 23.98C722.83 24 722.85 24.03 722.87 24.05L723.51 24.6899V24.6799L733.97 35.0901C734.66 35.7701 735.72 35.8299 736.5 35.1799L741.49 30.5901V30.6001L748.99 23.95C749.69 23.35 750.72 23.35 751.42 23.95L758.1 29.7V29.6899L764.13 35.4001C764.84 36.0101 765.89 36.0001 766.58 35.3801L777.64 25.51V25.52L779.4 23.95C780.11 23.32 781.17 23.32 781.88 23.95L794.68 35.4001C795.38 35.9901 796.4 36.0001 797.1 35.3901L804.73 28.1201L809.21 24.01C809.91 23.4 810.94 23.4 811.64 24.01L818.67 30.3201V30.3101L824.55 35.55C825.26 36.16 826.31 36.15 827 35.53L831.39 31.6699L838.69 25.52L840.45 23.95C841.16 23.32 842.22 23.32 842.93 23.95L849.92 29.79V29.76L856.47 35.52C857.16 36.14 858.22 36.15 858.92 35.54L864.43 30.79V30.8L871.57 23.96C872.27 23.35 873.3 23.36 874 23.96L878.24 27.8101L886.36 35.3801C886.98 35.8601 888.08 35.9801 888.78 35.3901L901.58 23.9399C902.29 23.3099 903.35 23.3099 904.06 23.9399L905.82 25.51V25.5L916.88 35.3701C917.57 35.9901 918.63 36.0001 919.33 35.3901L925.38 30.1799V30.1899L932.13 23.9199C932.83 23.3199 933.86 23.3199 934.56 23.9199L942.13 31.02V31.01L946.96 35.1699C947.79 35.7399 948.8 35.7601 949.48 35.0801L959.94 24.6699V24.6799L960.58 24.04C960.6 24.02 960.63 23.99 960.65 23.97C960.99 23.63 961.46 23.4199 961.97 23.4199C961.98 23.4199 962 23.4199 962.01 23.4199C962.02 23.4199 962.04 23.4199 962.05 23.4199C962.57 23.4199 963.03 23.63 963.37 23.97C963.4 23.99 963.42 24.02 963.45 24.04L964.09 24.6799V24.6699L974.55 35.0801C975.24 35.7601 976.3 35.8199 977.08 35.1699L982.07 30.5801V30.5901L989.57 23.9399C990.27 23.3399 991.3 23.3399 992 23.9399L998.68 29.6899V29.6799L1004.71 35.3901C1005.42 36.0001 1006.47 35.9901 1007.16 35.3701L1018.22 25.5V25.51L1019.98 23.9399C1020.69 23.3099 1021.75 23.3099 1022.46 23.9399L1035.26 35.3901C1035.96 35.9801 1036.98 35.9901 1037.68 35.3801L1045.31 28.1101L1049.79 24C1050.49 23.39 1051.52 23.39 1052.22 24L1059.25 30.3101V30.3L1065.13 35.54C1065.84 36.15 1066.89 36.14 1067.58 35.52L1071.97 31.6599L1079.27 25.51L1081.03 23.9399C1081.74 23.3099 1082.8 23.3099 1083.51 23.9399L1090.5 29.78V29.75L1097.05 35.51C1097.74 36.13 1098.8 36.14 1099.5 35.53L1105.01 30.78V30.79L1112.15 23.95C1112.85 23.34 1113.88 23.35 1114.59 23.95L1118.83 27.8L1126.95 35.3701C1127.57 35.8501 1128.67 35.9701 1129.37 35.3801L1142.17 23.9299C1142.88 23.2999 1143.94 23.2999 1144.65 23.9299L1146.41 25.5V25.49L1157.47 35.3601C1158.16 35.9801 1159.22 35.9901 1159.92 35.3801L1165.97 30.1699V30.1799L1172.72 23.9099C1173.42 23.3099 1174.45 23.3099 1175.15 23.9099L1182.72 31.01V31L1187.55 35.1599C1188.38 35.7299 1189.39 35.7501 1190.07 35.0701L1199.93 25.26V0H0V23.4299C0.41 23.5399 0.78 23.73 1.06 24.01Z" fill="#C5043C"/>
</svg>
