<svg width="1200" height="36" viewBox="0 0 1200 36" fill="none" xmlns="http://www.w3.org/2000/svg">
<path d="M1.06 23.96C1.09 23.98 1.11 24.01 1.13 24.03L1.77 24.67V24.66L12.23 35.07C12.92 35.75 13.98 35.81 14.76 35.16L19.75 30.57V30.58L27.25 23.93C27.95 23.33 28.98 23.33 29.68 23.93L36.36 29.68V29.67L42.39 35.38C43.1 35.99 44.15 35.98 44.84 35.36L55.9 25.49V25.5L57.66 23.93C58.37 23.3 59.43 23.3 60.14 23.93L72.94 35.38C73.64 35.97 74.66 35.98 75.36 35.37L82.99 28.1L87.46 24C88.16 23.39 89.19 23.39 89.89 24L96.92 30.31V30.3L102.8 35.54C103.51 36.15 104.56 36.14 105.25 35.52L109.64 31.66L116.94 25.51L118.7 23.94C119.41 23.31 120.47 23.31 121.18 23.94L128.18 29.78V29.75L134.73 35.51C135.42 36.13 136.48 36.14 137.18 35.53L142.69 30.78V30.79L149.83 23.95C150.53 23.34 151.56 23.35 152.27 23.95L156.51 27.8L164.63 35.37C165.25 35.85 166.36 35.97 167.05 35.38L179.85 23.93C180.56 23.3 181.62 23.3 182.33 23.93L184.09 25.5V25.49L195.15 35.36C195.84 35.98 196.9 35.99 197.6 35.38L203.65 30.17V30.18L210.4 23.91C211.1 23.31 212.13 23.31 212.83 23.91L220.4 31.01V31L225.23 35.16C226.06 35.73 227.07 35.75 227.75 35.07L238.21 24.66V24.67L238.85 24.03C238.87 24.01 238.9 23.98 238.92 23.96C239.26 23.62 239.73 23.41 240.24 23.41C240.25 23.41 240.27 23.41 240.28 23.41C240.29 23.41 240.31 23.41 240.32 23.41C240.84 23.41 241.3 23.62 241.64 23.96C241.67 23.98 241.69 24.01 241.71 24.03L242.35 24.67V24.66L252.81 35.07C253.5 35.75 254.56 35.81 255.34 35.16L260.33 30.57V30.58L267.83 23.93C268.53 23.33 269.56 23.33 270.26 23.93L276.94 29.68V29.67L282.97 35.38C283.68 35.99 284.73 35.98 285.42 35.36L296.48 25.49V25.5L298.24 23.93C298.95 23.3 300.01 23.3 300.72 23.93L313.52 35.38C314.22 35.97 315.24 35.98 315.94 35.37L323.57 28.1L328.05 23.99C328.75 23.38 329.78 23.38 330.48 23.99L337.51 30.3V30.29L343.39 35.53C344.1 36.14 345.15 36.13 345.84 35.51L350.23 31.65L357.53 25.5L359.29 23.93C360 23.3 361.06 23.3 361.77 23.93L368.76 29.77V29.74L375.31 35.5C376 36.12 377.06 36.13 377.76 35.52L383.27 30.77V30.78L390.41 23.94C391.11 23.33 392.14 23.34 392.85 23.94L397.09 27.79L405.21 35.36C405.83 35.84 406.93 35.96 407.63 35.37L420.43 23.92C421.14 23.29 422.2 23.29 422.91 23.92L424.67 25.49V25.48L435.73 35.35C436.42 35.97 437.48 35.98 438.18 35.37L444.23 30.16V30.17L450.98 23.9C451.68 23.3 452.71 23.3 453.41 23.9L460.98 31V30.99L465.81 35.15C466.64 35.72 467.65 35.74 468.33 35.06L478.79 24.65V24.66L479.43 24.02C479.45 24 479.48 23.97 479.5 23.95C479.84 23.61 480.31 23.4 480.82 23.4C480.83 23.4 480.85 23.4 480.86 23.4C480.87 23.4 480.89 23.4 480.9 23.4C481.42 23.4 481.88 23.61 482.22 23.95C482.25 23.97 482.27 24 482.29 24.02L482.93 24.66V24.65L493.39 35.06C494.08 35.74 495.14 35.8 495.92 35.15L500.91 30.56V30.57L508.41 23.92C509.11 23.32 510.14 23.32 510.84 23.92L517.52 29.67V29.66L523.55 35.37C524.26 35.98 525.31 35.97 526 35.35L537.06 25.48V25.49L538.82 23.92C539.53 23.29 540.59 23.29 541.3 23.92L554.1 35.37C554.8 35.96 555.82 35.97 556.52 35.36L564.15 28.09L568.63 23.98C569.33 23.37 570.36 23.37 571.06 23.98L578.09 30.29V30.28L583.97 35.52C584.68 36.13 585.73 36.12 586.42 35.5L590.81 31.64L598.11 25.49L599.87 23.92C600.58 23.29 601.64 23.29 602.35 23.92L609.34 29.76V29.73L615.89 35.49C616.58 36.11 617.64 36.12 618.34 35.51L623.85 30.76V30.77L630.99 23.93C631.69 23.32 632.72 23.33 633.42 23.93L637.66 27.78L645.78 35.35C646.4 35.83 647.5 35.95 648.2 35.36L661 23.91C661.71 23.28 662.77 23.28 663.48 23.91L665.24 25.48V25.47L676.3 35.34C676.99 35.96 678.05 35.97 678.75 35.36L684.8 30.15V30.16L691.55 23.89C692.25 23.29 693.28 23.29 693.98 23.89L701.55 30.99V30.98L706.38 35.14C707.21 35.71 708.22 35.73 708.9 35.05L719.36 24.64V24.65L720 24.01C720.02 23.99 720.05 23.96 720.07 23.94C720.41 23.6 720.88 23.39 721.39 23.39C721.4 23.39 721.42 23.39 721.43 23.39C721.44 23.39 721.46 23.39 721.47 23.39C721.99 23.39 722.45 23.6 722.79 23.94C722.82 23.96 722.84 23.99 722.86 24.01L723.5 24.65V24.64L733.96 35.05C734.65 35.73 735.71 35.79 736.49 35.14L741.48 30.55V30.56L748.98 23.91C749.68 23.31 750.71 23.31 751.41 23.91L758.09 29.66V29.65L764.12 35.36C764.83 35.97 765.88 35.96 766.57 35.34L777.63 25.47V25.48L779.39 23.91C780.1 23.28 781.16 23.28 781.87 23.91L794.67 35.36C795.37 35.95 796.39 35.96 797.09 35.35L804.72 28.08L809.2 23.97C809.9 23.36 810.93 23.36 811.63 23.97L818.66 30.28V30.27L824.54 35.51C825.25 36.12 826.3 36.11 826.99 35.49L831.38 31.63L838.68 25.48L840.44 23.91C841.15 23.28 842.21 23.28 842.92 23.91L849.91 29.75V29.72L856.46 35.48C857.15 36.1 858.21 36.11 858.91 35.5L864.42 30.75V30.76L871.56 23.92C872.26 23.31 873.29 23.32 873.99 23.92L878.23 27.77L886.35 35.34C886.97 35.82 888.07 35.94 888.77 35.35L901.57 23.9C902.28 23.27 903.34 23.27 904.05 23.9L905.81 25.47V25.46L916.87 35.33C917.56 35.95 918.62 35.96 919.32 35.35L925.37 30.14V30.15L932.12 23.88C932.82 23.28 933.85 23.28 934.55 23.88L942.12 30.98V30.97L946.95 35.13C947.78 35.7 948.79 35.72 949.47 35.04L960 24.66V24.67L960.64 24.03C960.66 24.01 960.69 23.98 960.71 23.96C961.05 23.62 961.52 23.41 962.03 23.41C962.04 23.41 962.06 23.41 962.07 23.41C962.08 23.41 962.1 23.41 962.11 23.41C962.63 23.41 963.09 23.62 963.43 23.96C963.46 23.98 963.48 24.01 963.51 24.03L964.15 24.67V24.66L974.61 35.07C975.3 35.75 976.36 35.81 977.14 35.16L982.13 30.57V30.58L989.63 23.93C990.33 23.33 991.36 23.33 992.06 23.93L998.74 29.68V29.67L1004.77 35.38C1005.48 35.99 1006.53 35.98 1007.22 35.36L1018.28 25.49V25.5L1020.04 23.93C1020.75 23.3 1021.81 23.3 1022.52 23.93L1035.32 35.38C1036.02 35.97 1037.04 35.98 1037.74 35.37L1045.37 28.1L1049.85 23.99C1050.55 23.38 1051.58 23.38 1052.28 23.99L1059.31 30.3V30.29L1065.19 35.53C1065.9 36.14 1066.95 36.13 1067.64 35.51L1072.03 31.65L1079.33 25.5L1081.09 23.93C1081.8 23.3 1082.86 23.3 1083.57 23.93L1090.56 29.77V29.74L1097.11 35.5C1097.8 36.12 1098.86 36.13 1099.56 35.52L1105.07 30.77V30.78L1112.21 23.94C1112.91 23.33 1113.94 23.34 1114.65 23.94L1118.89 27.79L1127.01 35.36C1127.63 35.84 1128.73 35.96 1129.43 35.37L1142.23 23.92C1142.94 23.29 1144 23.29 1144.71 23.92L1146.47 25.49V25.48L1157.53 35.35C1158.22 35.97 1159.28 35.98 1159.98 35.37L1166.03 30.16V30.17L1172.78 23.9C1173.48 23.3 1174.51 23.3 1175.21 23.9L1182.78 31V30.99L1187.61 35.15C1188.44 35.72 1189.45 35.74 1190.13 35.06L1199.99 25.25V0H0V23.43C0.41 23.49 0.78 23.68 1.06 23.96Z" fill="#E1DBCD"/>
</svg>
